<svg width="32" height="32" viewBox="0 0 32 32" fill="none" xmlns="http://www.w3.org/2000/svg">
<circle cx="16" cy="16" r="16" fill="#F59124"/>
<path d="M24 13.373V20.5C24 21.163 23.7366 21.7989 23.2678 22.2678C22.7989 22.7366 22.163 23 21.5 23H10.5C9.83696 23 9.20107 22.7366 8.73223 22.2678C8.26339 21.7989 8 21.163 8 20.5V13.373L15.746 17.931C15.823 17.9764 15.9107 18.0003 16 18.0003C16.0893 18.0003 16.177 17.9764 16.254 17.931L24 13.373ZM21.5 10C22.1151 9.9999 22.7087 10.2266 23.1672 10.6367C23.6257 11.0469 23.9168 11.6116 23.985 12.223L16 16.92L8.015 12.223C8.08316 11.6116 8.37432 11.0469 8.83279 10.6367C9.29127 10.2266 9.88485 9.9999 10.5 10H21.5Z" fill="white"/>
</svg>
