<svg width="32" height="32" viewBox="0 0 32 32" fill="none" xmlns="http://www.w3.org/2000/svg">
<circle cx="16" cy="16" r="16" fill="#2F89CE"/>
<path d="M7.48051 16.2989L11.159 17.6706L12.593 22.2842C12.6553 22.596 13.0294 22.6583 13.2788 22.4713L15.3362 20.7879C15.5233 20.6009 15.835 20.6009 16.0844 20.7879L19.7628 23.4688C20.0122 23.6559 20.3863 23.5312 20.4487 23.2194L23.1919 10.1266C23.2543 9.81486 22.9425 9.50313 22.6308 9.62782L7.48051 15.4884C7.10643 15.6131 7.10643 16.1742 7.48051 16.2989ZM12.4059 16.9847L19.6381 12.5581C19.7628 12.4958 19.8875 12.6828 19.7628 12.7452L13.8399 18.294C13.6529 18.4811 13.4658 18.7305 13.4658 19.0422L13.2788 20.5385C13.2788 20.7256 12.967 20.7879 12.9047 20.5385L12.1565 17.7953C11.9695 17.4835 12.0942 17.1094 12.4059 16.9847Z" fill="white"/>
</svg>
