<svg width="1645" height="1700" viewBox="0 0 1645 1700" fill="none" xmlns="http://www.w3.org/2000/svg">
<g opacity="0.1">
<path d="M365.237 427.891C210.26 511.789 152.431 706.133 236.329 861.111C320.227 1016.09 514.58 1073.93 669.557 990.035L1092.59 761.022C1104.61 754.517 1113.55 743.506 1117.44 730.411C1121.34 717.316 1119.88 703.209 1113.37 691.194C1106.87 679.178 1095.86 670.24 1082.76 666.343C1069.67 662.446 1055.56 663.912 1043.55 670.417L620.508 899.43C570.045 926.153 511.072 931.87 456.417 915.333C401.762 898.799 355.848 861.35 328.664 811.135C301.479 760.918 295.223 702 311.26 647.196C327.294 592.392 364.322 546.138 414.287 518.496L745.796 339.032C757.811 332.528 766.749 321.516 770.646 308.421C774.544 295.326 773.078 281.219 766.574 269.204C760.068 257.188 749.059 248.25 735.962 244.353C722.868 240.456 708.761 241.922 696.746 248.427L365.237 427.891ZM335.68 373.292L667.189 193.828C693.642 179.935 724.505 177.024 753.09 185.726C781.676 194.43 805.682 214.044 819.907 240.322C834.132 266.598 837.431 297.421 829.091 326.115C820.749 354.808 801.439 379.058 775.345 393.615L443.836 573.079C425.992 582.739 410.225 595.817 397.437 611.57C384.649 627.323 375.088 645.439 369.3 664.889C363.514 684.335 361.614 704.733 363.711 724.915C365.807 745.097 371.857 764.668 381.517 782.512C391.176 800.355 404.256 816.121 420.009 828.909C435.761 841.699 453.879 851.26 473.326 857.046C492.775 862.833 513.172 864.732 533.353 862.637C553.535 860.542 573.106 854.491 590.95 844.831L1013.99 615.818C1027.12 608.491 1041.58 603.845 1056.52 602.151C1071.47 600.456 1086.6 601.746 1101.04 605.942C1115.48 610.141 1128.94 617.165 1140.65 626.605C1152.35 636.048 1162.07 647.72 1169.23 660.947C1176.39 674.171 1180.85 688.687 1182.36 703.65C1183.86 718.614 1182.38 733.727 1178 748.114C1173.62 762.502 1166.43 775.874 1156.84 787.46C1147.25 799.046 1135.46 808.611 1122.14 815.605L699.106 1044.62C514.027 1144.81 281.932 1075.76 181.73 890.668C81.528 705.573 150.601 473.485 335.68 373.292Z" fill="url(#paint0_linear_104_11)"/>
<path d="M464.565 1086.79C435.432 1083.47 406.918 1076.04 379.874 1064.71C326.6 1044.11 278.582 1011.9 239.312 970.418C216.741 946.43 197.379 919.611 181.714 890.636C81.5204 705.558 150.585 473.454 335.68 373.252L667.173 193.796C693.626 179.904 724.49 176.994 753.075 185.696C781.66 194.398 805.666 214.013 819.891 240.29C834.117 266.567 837.416 297.391 829.075 326.084C820.733 354.776 801.423 379.028 775.328 393.583L443.836 573.039C432.906 579.68 422.495 587.14 412.691 595.353C386.017 617.815 364.093 645.371 348.203 676.411C339.047 693.718 282.131 806.862 331.986 933.896C368.549 1027.06 440.992 1072.98 464.831 1086.75L464.565 1086.79Z" fill="url(#paint1_linear_104_11)"/>
<path d="M748.729 832.034C593.751 915.932 535.931 1110.29 619.829 1265.27C703.727 1420.25 898.08 1478.09 1053.06 1394.19L1514.01 1144.66C1520.09 1141.51 1525.49 1137.18 1529.88 1131.93C1534.27 1126.67 1537.57 1120.59 1539.58 1114.04C1541.6 1107.5 1542.29 1100.62 1541.61 1093.8C1540.94 1086.99 1538.91 1080.37 1535.65 1074.35C1532.39 1068.33 1527.96 1063.02 1522.62 1058.72C1517.29 1054.43 1511.15 1051.25 1504.57 1049.36C1497.98 1047.47 1491.09 1046.91 1484.29 1047.71C1477.49 1048.51 1470.91 1050.66 1464.95 1054.03L1004 1303.57C953.487 1330.92 894.179 1337.08 839.125 1320.7C784.072 1304.32 737.779 1266.73 710.434 1216.22C683.089 1165.71 676.93 1106.4 693.311 1051.35C709.693 996.293 747.275 950.001 797.787 922.655L1072.42 773.981C1084.17 767.332 1092.84 756.34 1096.57 743.365C1100.3 730.389 1098.79 716.47 1092.36 704.597C1085.93 692.726 1075.1 683.848 1062.2 679.877C1049.3 675.906 1035.35 677.157 1023.36 683.36L748.729 832.034ZM719.18 777.451L993.814 628.777C1020.27 614.886 1051.13 611.975 1079.72 620.677C1108.3 629.379 1132.31 648.993 1146.53 675.271C1160.76 701.548 1164.06 732.372 1155.72 761.064C1147.37 789.757 1128.06 814.009 1101.97 828.564L827.336 977.238C791.299 996.747 764.488 1029.77 752.801 1069.05C741.114 1108.33 745.508 1150.64 765.017 1186.67C784.526 1222.71 817.551 1249.52 856.827 1261.21C896.103 1272.89 938.414 1268.5 974.45 1248.99L1435.4 999.451C1448.54 992.125 1463 987.48 1477.94 985.785C1492.88 984.089 1508.01 985.379 1522.45 989.577C1536.9 993.775 1550.36 1000.8 1562.06 1010.24C1573.77 1019.68 1583.49 1031.35 1590.64 1044.58C1597.8 1057.81 1602.27 1072.32 1603.77 1087.28C1605.28 1102.25 1603.8 1117.36 1599.42 1131.75C1595.04 1146.13 1587.85 1159.51 1578.26 1171.1C1568.67 1182.68 1556.87 1192.25 1543.56 1199.24L1082.61 1448.78C897.527 1548.97 665.432 1479.92 565.23 1294.83C465.028 1109.73 534.11 877.661 719.189 777.467L719.18 777.451Z" fill="url(#paint2_linear_104_11)"/>
<path d="M845.144 1490.08C816.132 1486.13 787.699 1478.72 760.453 1468C668.849 1432.87 594.387 1363.67 552.658 1274.88C465.499 1090.38 544.616 869.503 724.06 772.36L1043.42 599.471C1095.59 571.232 1162.8 584.247 1195.91 633.401C1204.79 646.54 1210.82 661.393 1213.62 677.003C1216.41 692.612 1215.9 708.635 1212.13 724.039C1208.36 739.441 1201.41 753.885 1191.72 766.439C1182.03 778.993 1169.82 789.38 1155.88 796.932L824.416 976.37C813.71 983.232 803.357 990.629 793.397 998.535L792.26 999.438C757.222 1027.61 729.492 1063.81 711.426 1104.98C693.36 1146.15 685.489 1191.07 688.479 1235.93C690.825 1270.8 698.931 1305.05 712.471 1337.28C750.702 1428.2 819.726 1474.57 845.323 1490.1L845.144 1490.08Z" fill="url(#paint3_linear_104_11)"/>
</g>
<defs>
<linearGradient id="paint0_linear_104_11" x1="527.434" y1="503.823" x2="724.563" y2="867.963" gradientUnits="userSpaceOnUse">
<stop stop-color="#06051C" stop-opacity="0"/>
<stop offset="1" stop-color="#7732FE"/>
</linearGradient>
<linearGradient id="paint1_linear_104_11" x1="865.926" y1="477.936" x2="238.963" y2="817.346" gradientUnits="userSpaceOnUse">
<stop stop-color="#0074FE"/>
<stop offset="1" stop-color="#02E7DF"/>
</linearGradient>
<linearGradient id="paint2_linear_104_11" x1="935.295" y1="905.417" x2="1186.92" y2="1370.22" gradientUnits="userSpaceOnUse">
<stop stop-color="#06051C" stop-opacity="0"/>
<stop offset="1" stop-color="#7732FE"/>
</linearGradient>
<linearGradient id="paint3_linear_104_11" x1="493.431" y1="1165.2" x2="1181.32" y2="778.146" gradientUnits="userSpaceOnUse">
<stop stop-color="#02E7DF"/>
<stop offset="1" stop-color="#0074FE"/>
</linearGradient>
</defs>
</svg>
