<svg width="1000" height="220" viewBox="0 0 1000 220" fill="none" xmlns="http://www.w3.org/2000/svg">
<path d="M138.762 41.8744C158.264 41.8744 174.13 57.7405 174.13 77.2421C174.13 96.7436 158.264 112.612 138.762 112.612H85.5293C84.0174 112.612 82.5674 112.011 81.4984 110.942C80.4291 109.873 79.8286 108.423 79.8286 106.911C79.8286 105.399 80.4291 103.949 81.4984 102.88C82.5674 101.811 84.0174 101.21 85.5293 101.21H138.762C145.081 101.153 151.121 98.6021 155.568 94.1134C160.016 89.625 162.511 83.5619 162.511 77.2431C162.511 70.9241 160.016 64.8609 155.568 60.3725C151.121 55.8839 145.081 53.3334 138.762 53.2757H97.0467C95.5348 53.2757 94.0848 52.675 93.0158 51.606C91.9466 50.537 91.3461 49.087 91.3461 47.5751C91.3461 46.063 91.9466 44.6132 93.0158 43.544C94.0848 42.475 95.5348 41.8744 97.0467 41.8744H138.762ZM138.762 35.004H97.0467C93.7405 35.0457 90.5837 36.3883 88.2604 38.7411C85.9371 41.0941 84.6343 44.2675 84.6343 47.5741C84.6343 50.8805 85.9371 54.0539 88.2604 56.4069C90.5837 58.7596 93.7405 60.1023 97.0467 60.1441H138.762C141.007 60.1441 143.231 60.5862 145.305 61.4455C147.379 62.3048 149.264 63.5641 150.852 65.1519C152.44 66.7395 153.699 68.6244 154.558 70.699C155.418 72.7733 155.86 74.9967 155.86 77.2421C155.86 79.4873 155.418 81.7106 154.558 83.785C153.699 85.8595 152.44 87.7444 150.852 89.332C149.264 90.9198 147.379 92.1791 145.305 93.0384C143.231 93.8977 141.007 94.34 138.762 94.34H85.5293C83.8651 94.319 82.2134 94.6284 80.6701 95.2508C79.1266 95.8731 77.722 96.7957 76.5378 97.9649C75.3536 99.1343 74.4134 100.527 73.7716 102.062C73.1301 103.598 72.7996 105.246 72.7996 106.91C72.7996 108.574 73.1301 110.222 73.7716 111.757C74.4134 113.293 75.3536 114.686 76.5378 115.855C77.722 117.024 79.1266 117.947 80.6701 118.569C82.2134 119.191 83.8651 119.501 85.5293 119.48H138.762C162.051 119.48 181 100.533 181 77.2421C181 53.9508 162.051 35.004 138.762 35.004Z" fill="url(#paint0_linear_37_41)"/>
<path d="M163.808 111.228C166.468 109.37 168.852 107.145 170.887 104.618C174.986 99.8061 177.962 94.1419 179.598 88.0364C180.531 84.5129 181.002 80.883 181 77.238C181 53.9487 162.051 35 138.76 35H97.0467C93.7405 35.0417 90.5837 36.3845 88.2604 38.7373C85.9371 41.09 84.6343 44.2634 84.6343 47.5701C84.6343 50.8767 85.9371 54.0501 88.2604 56.4029C90.5837 58.7556 93.7405 60.0985 97.0467 60.1401H138.76C140.173 60.2106 141.58 60.3881 142.966 60.6709C146.745 61.4515 150.331 62.9782 153.512 65.1617C155.315 66.3636 166.814 74.3757 168.655 89.3644C170.005 100.357 165.374 108.642 163.78 111.238L163.808 111.228Z" fill="url(#paint1_linear_37_41)"/>
<path d="M122.734 101.407C142.235 101.407 158.101 117.275 158.101 136.776C158.101 156.278 142.235 172.146 122.734 172.146H64.7297C63.972 172.16 63.219 172.023 62.5148 171.743C61.8106 171.463 61.1693 171.045 60.6285 170.514C60.0876 169.983 59.6579 169.35 59.3646 168.651C59.0713 167.953 58.9202 167.202 58.9202 166.444C58.9202 165.687 59.0713 164.936 59.3646 164.237C59.6579 163.538 60.0876 162.905 60.6285 162.374C61.1693 161.844 61.8106 161.426 62.5148 161.146C63.219 160.865 63.972 160.728 64.7297 160.743H122.734C129.09 160.743 135.186 158.218 139.681 153.723C144.175 149.229 146.7 143.133 146.7 136.776C146.7 130.42 144.175 124.324 139.681 119.83C135.186 115.335 129.09 112.81 122.734 112.81H88.1753C86.6816 112.782 85.2586 112.169 84.2122 111.103C83.1657 110.037 82.5796 108.602 82.5796 107.108C82.5796 105.614 83.1657 104.18 84.2122 103.114C85.2586 102.048 86.6816 101.435 88.1753 101.407H122.734ZM122.734 94.5383H88.1753C84.869 94.5801 81.7122 95.9228 79.3889 98.2755C77.0656 100.628 75.7628 103.802 75.7628 107.108C75.7628 110.415 77.0656 113.588 79.3889 115.941C81.7122 118.294 84.869 119.637 88.1753 119.678H122.734C127.268 119.678 131.617 121.48 134.824 124.686C138.03 127.893 139.832 132.242 139.832 136.776C139.832 141.311 138.03 145.66 134.824 148.866C131.617 152.073 127.268 153.874 122.734 153.874H64.7297C63.0657 153.853 61.414 154.163 59.8705 154.785C58.327 155.407 56.9224 156.33 55.7383 157.499C54.5541 158.669 53.6139 160.061 52.9722 161.597C52.3304 163.132 52 164.78 52 166.444C52 168.109 52.3304 169.756 52.9722 171.292C53.6139 172.827 54.5541 174.22 55.7383 175.389C56.9224 176.559 58.327 177.481 59.8705 178.104C61.414 178.726 63.0657 179.035 64.7297 179.014H122.734C146.023 179.014 164.972 160.068 164.972 136.776C164.972 113.485 146.023 94.5403 122.734 94.5403V94.5383Z" fill="url(#paint2_linear_37_41)"/>
<path d="M148.018 170.524C150.633 168.611 153.01 166.392 155.097 163.913C162.16 155.669 165.761 145.011 165.144 134.172C163.906 111.626 144.571 94.2999 121.99 94.2999H81.8036C75.2396 94.2999 69.3847 99.1072 68.7518 105.635C68.5798 107.382 68.7754 109.145 69.3259 110.811C69.8763 112.477 70.7695 114.01 71.948 115.31C73.1264 116.61 74.564 117.65 76.1682 118.361C77.7724 119.072 79.5079 119.44 81.2627 119.44H122.972C124.375 119.544 125.773 119.718 127.158 119.963L127.317 119.991C132.21 120.886 136.816 122.949 140.743 126.003C144.67 129.058 147.802 133.014 149.875 137.537C151.484 141.055 152.499 144.815 152.879 148.664C153.949 159.527 149.674 167.675 148.002 170.536L148.018 170.524Z" fill="url(#paint3_linear_37_41)"/>
<path d="M247.816 177.598C244.345 177.598 241.741 176.997 240.005 175.795C238.27 174.594 237.135 172.992 236.601 170.989C236.2 168.986 236 166.783 236 164.38V50.623C236 48.2197 236.267 46.0833 236.801 44.2139C237.335 42.2113 238.403 40.6089 240.005 39.4075C241.741 38.2058 244.411 37.605 248.016 37.605H300.888C308.631 37.605 315.442 39.4075 321.316 43.0122C327.324 46.6172 331.998 51.4239 335.336 57.4323C338.672 63.3071 340.342 69.7825 340.342 76.859C340.342 80.0636 339.942 83.2678 339.139 86.4724C338.473 89.5432 337.337 92.4138 335.736 95.0842C334.267 97.7545 332.398 100.158 330.128 102.294C333.198 104.697 335.868 107.635 338.137 111.106C340.41 114.578 342.078 118.383 343.147 122.522C344.347 126.528 344.949 130.733 344.949 135.139C344.814 141.148 343.678 146.755 341.543 151.962C339.408 157.036 336.402 161.509 332.532 165.381C328.793 169.253 324.386 172.257 319.312 174.393C314.239 176.53 308.765 177.598 302.891 177.598H247.816ZM260.232 153.965H300.888C304.761 153.965 308.164 153.231 311.102 151.762C314.172 150.294 316.576 148.024 318.311 144.953C320.048 141.882 320.916 137.877 320.916 132.936C320.916 129.064 320.381 125.993 319.312 123.724C318.378 121.32 317.043 119.451 315.308 118.116C313.704 116.781 311.835 115.846 309.7 115.312C307.696 114.778 305.695 114.511 303.692 114.511C301.688 114.377 299.819 114.311 298.084 114.311H288.871C285.401 114.311 282.863 113.51 281.262 111.907C279.659 110.172 278.858 107.368 278.858 103.496C278.858 99.8908 279.726 97.354 281.461 95.8854C283.199 94.283 285.868 93.482 289.473 93.482H298.484C300.222 93.482 302.091 93.4151 304.092 93.2817C306.23 93.1482 308.231 92.6808 310.1 91.8796C311.969 90.9452 313.506 89.4766 314.706 87.4737C315.909 85.4708 316.508 82.5335 316.508 78.6615C316.508 72.6532 314.908 68.3139 311.703 65.6436C308.631 62.8398 303.291 61.4377 295.68 61.4377H260.232V153.965ZM375.771 177.798C372.167 177.798 369.495 177.197 367.76 175.996C366.024 174.928 364.955 173.526 364.555 171.79C364.155 169.921 363.954 167.851 363.954 165.581V91.0787C363.954 88.9423 364.155 87.0063 364.555 85.2707C365.09 83.4013 366.159 81.9327 367.76 80.8645C369.495 79.7963 372.234 79.2624 375.97 79.2624C379.709 79.2624 382.381 79.7963 383.982 80.8645C385.717 81.9327 386.786 83.4013 387.186 85.2707C387.586 87.1398 387.788 89.2093 387.788 91.4791V165.782C387.788 168.051 387.586 170.121 387.186 171.99C386.786 173.726 385.717 175.128 383.982 176.196C382.381 177.264 379.642 177.798 375.771 177.798ZM375.771 59.8356C371.898 59.8356 369.027 59.3014 367.161 58.2335C365.423 57.0318 364.289 55.4294 363.755 53.4268C363.355 51.4239 363.153 49.2209 363.153 46.8176C363.153 44.2808 363.355 42.0778 363.755 40.2084C364.289 38.3393 365.49 36.8704 367.359 35.8025C369.229 34.6008 372.1 34 375.97 34C379.977 34 382.849 34.6008 384.584 35.8025C386.319 37.0042 387.455 38.6063 387.987 40.6092C388.521 42.4783 388.79 44.6813 388.79 47.2181C388.79 49.4879 388.521 51.6243 387.987 53.6269C387.455 55.6298 386.319 57.1653 384.584 58.2335C382.849 59.3014 379.91 59.8356 375.771 59.8356ZM456.016 177.798C449.473 177.798 443.865 177.131 439.192 175.795C434.521 174.46 430.715 172.391 427.777 169.587C424.842 166.783 422.636 163.178 421.167 158.772C419.832 154.232 419.166 148.892 419.166 142.75V57.8327C419.166 55.4294 419.365 53.3599 419.768 51.6243C420.3 49.8884 421.369 48.5532 422.972 47.6188C424.707 46.5506 427.377 46.0164 430.981 46.0164C434.72 46.0164 437.39 46.5506 438.993 47.6188C440.728 48.6867 441.797 50.1556 442.197 52.0248C442.732 53.7606 442.998 55.6966 442.998 57.8327V141.949C442.998 144.753 443.199 147.023 443.599 148.758C444.134 150.494 444.867 151.829 445.802 152.764C446.871 153.565 448.206 154.166 449.806 154.566C451.544 154.833 453.612 154.967 456.016 154.967C458.551 154.967 460.689 155.167 462.424 155.567C464.294 155.968 465.696 156.97 466.63 158.572C467.565 160.04 468.032 162.511 468.032 165.982C468.032 169.721 467.431 172.457 466.23 174.193C465.161 175.795 463.692 176.797 461.823 177.197C460.088 177.598 458.151 177.798 456.016 177.798ZM410.956 81.0649L431.583 81.265L459.22 80.464C461.49 80.464 463.493 80.731 465.228 81.265C467.098 81.6657 468.567 82.7339 469.633 84.4695C470.702 86.0716 471.237 88.742 471.237 92.4804C471.237 95.952 470.702 98.5557 469.633 100.291C468.567 102.027 467.165 103.162 465.43 103.696C463.692 104.097 461.691 104.297 459.422 104.297L432.585 103.896L410.354 104.097C407.016 103.963 404.679 103.028 403.344 101.293C402.144 99.4235 401.542 96.4193 401.542 92.2803C401.542 88.4084 402.275 85.6043 403.744 83.8687C405.348 81.9996 407.752 81.0649 410.956 81.0649ZM520.414 179C516.944 179 513.27 178.599 509.4 177.798C505.527 177.131 501.788 176.129 498.184 174.794C494.579 173.325 491.442 171.657 488.772 169.787C486.234 167.785 484.634 165.581 483.965 163.178C483.43 161.843 483.232 160.575 483.363 159.373C483.497 158.038 483.898 156.703 484.566 155.367C485.233 153.899 486.234 152.43 487.569 150.961C488.772 149.493 489.973 148.691 491.174 148.558C492.508 148.291 494.179 148.691 496.183 149.76C497.918 150.427 499.787 151.295 501.788 152.363C503.926 153.431 506.061 154.499 508.196 155.567C510.469 156.636 512.738 157.503 515.008 158.171C517.412 158.839 519.745 159.172 522.018 159.172C526.957 159.172 530.894 158.372 533.833 156.769C536.771 155.034 538.237 152.63 538.237 149.559C538.237 147.824 537.77 146.288 536.835 144.953C535.901 143.618 534.633 142.549 533.032 141.749C531.563 140.814 529.761 140.013 527.623 139.345C525.622 138.544 523.417 137.877 521.016 137.342C518.746 136.675 516.343 135.941 513.804 135.139C510.469 134.205 507.13 133.07 503.792 131.735C500.453 130.4 497.45 128.664 494.781 126.528C492.243 124.391 490.174 121.721 488.571 118.516C486.968 115.312 486.167 111.306 486.167 106.5C486.167 100.492 487.569 95.418 490.373 91.2788C493.312 87.0063 497.518 83.7352 502.991 81.4653C508.465 79.1955 515.075 78.0607 522.818 78.0607C525.488 78.0607 528.026 78.2611 530.427 78.6615C532.965 79.062 535.369 79.6628 537.639 80.464C540.04 81.1315 542.312 81.9996 544.447 83.0675C546.717 84.1357 548.852 85.3373 550.856 86.6725C554.194 88.5419 555.929 90.7448 556.063 93.2817C556.195 95.685 555.26 98.2887 553.259 101.092C551.79 102.962 550.321 104.297 548.852 105.098C547.385 105.766 545.849 105.766 544.246 105.098C542.11 104.03 539.774 102.895 537.238 101.693C534.835 100.358 532.296 99.2231 529.627 98.2887C527.091 97.354 524.419 96.8867 521.615 96.8867C518.945 96.8867 516.541 97.2871 514.406 98.0883C512.271 98.8895 510.667 100.024 509.598 101.493C508.532 102.962 507.998 104.697 507.998 106.7C507.998 108.569 508.532 110.105 509.598 111.306C510.667 112.508 512.069 113.51 513.804 114.311C515.542 115.112 517.61 115.846 520.014 116.514C522.418 117.048 524.953 117.582 527.623 118.116C531.362 118.917 535.168 119.918 539.04 121.12C542.911 122.322 546.451 123.991 549.655 126.127C552.991 128.263 555.663 131.134 557.664 134.739C559.668 138.21 560.67 142.75 560.67 148.358C560.67 158.104 557.065 165.648 549.854 170.989C542.779 176.329 532.965 179 520.414 179ZM624.152 179C617.744 179 611.469 177.798 605.327 175.395C599.319 172.858 593.845 169.32 588.903 164.78C584.098 160.241 580.225 154.9 577.289 148.758C574.485 142.616 573.083 135.874 573.083 128.53C573.083 121.454 574.418 114.845 577.088 108.703C579.758 102.561 583.429 97.1536 588.103 92.4804C592.776 87.8075 598.115 84.2025 604.124 81.6657C610.266 78.9954 616.809 77.6602 623.752 77.6602C633.098 77.6602 641.575 79.9298 649.187 84.4695C656.796 88.8757 662.871 94.8838 667.41 102.494C671.949 110.105 674.221 118.717 674.221 128.33C674.221 135.941 672.819 142.883 670.015 149.159C667.211 155.301 663.405 160.641 658.598 165.181C653.793 169.587 648.386 172.992 642.378 175.395C636.501 177.798 630.426 179 624.152 179ZM623.752 155.367C628.157 155.367 632.363 154.299 636.37 152.163C640.509 149.893 643.844 146.689 646.383 142.549C649.052 138.411 650.387 133.537 650.387 127.929C650.387 122.722 649.187 118.116 646.783 114.11C644.513 110.105 641.376 106.967 637.369 104.697C633.364 102.428 628.758 101.293 623.55 101.293C618.611 101.293 614.139 102.494 610.132 104.898C606.127 107.167 602.923 110.372 600.519 114.511C598.25 118.516 597.116 123.056 597.116 128.13C597.116 133.737 598.384 138.611 600.919 142.75C603.458 146.755 606.729 149.893 610.733 152.163C614.872 154.299 619.213 155.367 623.752 155.367ZM701.576 177.598C697.972 177.598 695.3 177.064 693.565 175.996C691.964 174.928 690.962 173.459 690.562 171.59C690.162 169.721 689.96 167.718 689.96 165.581V90.6782C689.96 88.5419 690.162 86.6059 690.562 84.87C690.962 83.1344 692.028 81.7323 693.766 80.6641C695.501 79.5962 698.238 79.062 701.977 79.062C705.85 79.062 708.651 79.8632 710.389 81.4653C712.258 83.0675 713.193 85.6043 713.193 89.0758L711.391 94.6837C712.057 93.215 713.193 91.6126 714.793 89.877C716.397 88.1411 718.331 86.4055 720.603 84.6699C723.004 82.934 725.676 81.5322 728.612 80.464C731.55 79.3959 734.62 78.8619 737.824 78.8619C742.232 78.8619 746.236 79.5962 749.841 81.0649C753.58 82.5335 756.851 84.6699 759.655 87.4737C762.593 90.2775 765.129 93.6821 767.264 97.6879C769.536 94.2163 772.072 91.0787 774.876 88.2749C777.68 85.3373 780.951 83.0675 784.69 81.4653C788.428 79.7297 792.632 78.8619 797.305 78.8619C805.051 78.8619 811.526 80.7979 816.732 84.6699C822.074 88.5419 826.078 94.0829 828.748 101.293C831.552 108.369 832.954 116.847 832.954 126.728V165.581C832.954 167.851 832.688 169.921 832.154 171.79C831.753 173.526 830.685 174.928 828.949 175.996C827.346 177.064 824.676 177.598 820.938 177.598C817.199 177.598 814.462 176.997 812.727 175.795C810.992 174.727 809.923 173.326 809.523 171.59C809.123 169.721 808.921 167.651 808.921 165.381V126.528C808.921 121.587 808.32 117.315 807.119 113.71C805.918 110.105 804.116 107.301 801.712 105.298C799.443 103.295 796.437 102.294 792.699 102.294C788.694 102.294 785.224 103.295 782.286 105.298C779.482 107.167 777.279 109.905 775.676 113.51C774.075 117.115 773.272 121.521 773.272 126.728V165.782C773.272 168.051 772.939 170.188 772.273 172.19C771.604 174.06 770.269 175.462 768.266 176.396C766.396 177.464 763.66 177.865 760.055 177.598C756.717 177.464 754.248 176.797 752.645 175.595C751.176 174.393 750.241 172.925 749.841 171.189C749.575 169.32 749.441 167.384 749.441 165.381V126.528C749.441 121.587 748.839 117.315 747.639 113.71C746.438 109.971 744.633 107.167 742.232 105.298C739.962 103.295 736.89 102.294 733.02 102.294C728.881 102.294 725.341 103.362 722.405 105.498C719.601 107.635 717.463 110.505 715.997 114.11C714.528 117.715 713.792 121.854 713.792 126.528V165.782C713.792 167.918 713.526 169.921 712.991 171.79C712.591 173.659 711.522 175.061 709.787 175.996C708.184 177.064 705.447 177.598 701.576 177.598ZM935.185 177.398C931.312 177.398 928.441 176.663 926.572 175.195C924.702 173.726 923.768 171.723 923.768 169.186L925.169 162.577C924.103 164.313 922.298 166.382 919.763 168.786C917.225 171.056 913.889 173.125 909.75 174.994C905.611 176.73 900.602 177.598 894.728 177.598C888.454 177.598 882.513 176.329 876.905 173.793C871.431 171.122 866.556 167.517 862.283 162.978C858.144 158.305 854.809 153.031 852.271 147.156C849.867 141.148 848.666 134.739 848.666 127.929C848.666 121.387 849.867 115.245 852.271 109.504C854.809 103.629 858.212 98.4222 862.485 93.8825C866.758 89.3428 871.63 85.8047 877.104 83.2678C882.712 80.5975 888.588 79.2624 894.728 79.2624C900.202 79.2624 904.808 79.9967 908.547 81.4653C912.42 82.934 915.691 84.8034 918.361 87.0732C921.031 89.2093 923.233 91.4791 924.971 93.8825L923.768 88.0745C923.768 85.1372 924.702 82.934 926.572 81.4653C928.441 79.8632 931.379 79.062 935.384 79.062C939.122 79.062 941.792 79.6628 943.395 80.8645C944.996 81.9327 945.998 83.4682 946.398 85.4708C946.799 87.3402 947 89.4765 947 91.8796V165.181C947 167.451 946.799 169.52 946.398 171.389C945.998 173.259 944.929 174.727 943.194 175.795C941.593 176.864 938.921 177.398 935.185 177.398ZM898.333 154.166C902.874 154.166 906.946 153.031 910.551 150.761C914.155 148.491 917.026 145.42 919.161 141.548C921.431 137.543 922.567 133.137 922.567 128.33C922.567 123.123 921.431 118.583 919.161 114.711C916.892 110.839 913.889 107.835 910.15 105.699C906.546 103.429 902.472 102.294 897.932 102.294C892.993 102.294 888.588 103.496 884.715 105.899C880.842 108.169 877.773 111.306 875.503 115.312C873.365 119.184 872.299 123.59 872.299 128.53C872.299 133.337 873.432 137.676 875.702 141.548C877.974 145.42 881.044 148.491 884.914 150.761C888.921 153.031 893.393 154.166 898.333 154.166Z" fill="white"/>
<defs>
<linearGradient id="paint0_linear_37_41" x1="126.978" y1="57.8086" x2="126.978" y2="103.63" gradientUnits="userSpaceOnUse">
<stop stop-color="#06051C" stop-opacity="0"/>
<stop offset="1" stop-color="#7732FE"/>
</linearGradient>
<linearGradient id="paint1_linear_37_41" x1="92.6741" y1="73.1218" x2="171.568" y2="73.1218" gradientUnits="userSpaceOnUse">
<stop stop-color="#0074FE"/>
<stop offset="1" stop-color="#02E7DF"/>
</linearGradient>
<linearGradient id="paint2_linear_37_41" x1="108.444" y1="118.377" x2="108.444" y2="176.865" gradientUnits="userSpaceOnUse">
<stop stop-color="#06051C" stop-opacity="0"/>
<stop offset="1" stop-color="#7732FE"/>
</linearGradient>
<linearGradient id="paint3_linear_37_41" x1="165.13" y1="120.379" x2="77.7975" y2="118.952" gradientUnits="userSpaceOnUse">
<stop stop-color="#02E7DF"/>
<stop offset="1" stop-color="#0074FE"/>
</linearGradient>
</defs>
</svg>
